SolidWorks IGES file using analytic representation for surfaces         S      1
1H,,1H;,9HBrake pin,73HC:\Users\Xubair\Downloads\ps-1-brake-caliper.snapG      1
shot.2\IGS\Brake pin.IGS,15HSolidWorks 2013,15HSolidWorks 2013,32,308,  G      2
15,308,15,9HBrake pin,1.,2,2HMM,50,0.125,13H140513.153602,1E-008,       G      3
499990.,6HXubair,,11,0,13H140513.153602;                                G      4
     124       1       0       0       0                        00000000D      1
     124       0       0       1       0                               0D      2
     110       2       0       0       0               1        00020000D      3
     110       0       0       1       0                               0D      4
     110       3       0       0       0               1        00020000D      5
     110       0       0       1       0                               0D      6
     110       4       0       0       0               1        00020000D      7
     110       0       0       1       0                               0D      8
     110       5       0       0       0               1        00020000D      9
     110       0       0       1       0                               0D     10
     110       6       0       0       0               1        00020000D     11
     110       0       0       1       0                               0D     12
     110       7       0       0       0               1        00020000D     13
     110       0       0       1       0                               0D     14
     100       8       0       0       0               1        00020000D     15
     100       0       0       1       0                               0D     16
     402       9       0       0       0                        00000000D     17
     402       0       0       1      16                2DSKETCH       1D     18
     124      10       0       0       0                        00000000D     19
     124       0       0       1       0                               0D     20
     100      11       0       0       0              19        00020000D     21
     100       0       0       2       0                               0D     22
     402      13       0       0       0                        00000000D     23
     402       0       0       1      16                2DSKETCH       2D     24
     314      14       0       0       0                        00000200D     25
     314       0       8       1       0                               0D     26
     502      15       0       0       0                        00010000D     27
     502       0       0       6       1                               0D     28
     124      21       0       0       0                        00000000D     29
     124       0       0       2       0                               0D     30
     100      23       0       0       0              29        00010000D     31
     100       0       0       1       0                               0D     32
     124      24       0       0       0                        00000000D     33
     124       0       0       2       0                               0D     34
     100      26       0       0       0              33        00010000D     35
     100       0       0       1       0                               0D     36
     124      27       0       0       0                        00000000D     37
     124       0       0       4       0                               0D     38
     100      31       0       0       0              37        00010000D     39
     100       0       0       1       0                               0D     40
     124      32       0       0       0                        00000000D     41
     124       0       0       2       0                               0D     42
     100      34       0       0       0              41        00010000D     43
     100       0       0       1       0                               0D     44
     124      35       0       0       0                        00000000D     45
     124       0       0       4       0                               0D     46
     100      39       0       0       0              45        00010000D     47
     100       0       0       1       0                               0D     48
     124      40       0       0       0                        00000000D     49
     124       0       0       2       0                               0D     50
     100      42       0       0       0              49        00010000D     51
     100       0       0       1       0                               0D     52
     126      43       0       0       0                        01010000D     53
     126       0       0      33       0                               0D     54
     110      76       0       0       0                        01010000D     55
     110       0       0       2       0                               0D     56
     126      78       0       0       0                        01010000D     57
     126       0       0      35       0                               0D     58
     124     113       0       0       0                        00000000D     59
     124       0       0       4       0                               0D     60
     100     117       0       0       0              59        00010000D     61
     100       0       0       2       0                               0D     62
     110     119       0       0       0                        01010000D     63
     110       0       0       2       0                               0D     64
     110     121       0       0       0                        01010000D     65
     110       0       0       1       0                               0D     66
     110     122       0       0       0                        01010000D     67
     110       0       0       1       0                               0D     68
     126     123       0       0       0                        01010000D     69
     126       0       0      36       0                               0D     70
     124     159       0       0       0                        00000000D     71
     124       0       0       4       0                               0D     72
     100     163       0       0       0              71        00010000D     73
     100       0       0       1       0                               0D     74
     124     164       0       0       0                        00000000D     75
     124       0       0       4       0                               0D     76
     100     168       0       0       0              75        00010000D     77
     100       0       0       1       0                               0D     78
     124     169       0       0       0                        00000000D     79
     124       0       0       4       0                               0D     80
     100     173       0       0       0              79        00010000D     81
     100       0       0       2       0                               0D     82
     126     175       0       0       0                        01010000D     83
     126       0       0      34       0                               0D     84
     504     209       0       0       0                        00010000D     85
     504       0       0       5       1                               0D     86
     110     214       0       0       0                        01010000D     87
     110       0       0       1       0                               0D     88
     110     215       0       0       0                        01010000D     89
     110       0       0       2       0                               0D     90
     120     217       0       0       0                        01010000D     91
     120       0     -25       1       0                               0D     92
     508     218       0       0       0                        00010000D     93
     508       0       0       1       1                               0D     94
     510     219       0       0       0                        00010000D     95
     510       0     -25       1       1                               0D     96
     110     220       0       0       0                        01010000D     97
     110       0       0       1       0                               0D     98
     110     221       0       0       0                        01010000D     99
     110       0       0       1       0                               0D    100
     120     222       0       0       0                        01010000D    101
     120       0     -25       1       0                               0D    102
     508     223       0       0       0                        00010000D    103
     508       0       0       1       1                               0D    104
     508     224       0       0       0                        00010000D    105
     508       0       0       1       1                               0D    106
     510     225       0       0       0                        00010000D    107
     510       0     -25       1       1                               0D    108
     110     226       0       0       0                        01010000D    109
     110       0       0       1       0                               0D    110
     124     227       0       0       0                        00000000D    111
     124       0       0       4       0                               0D    112
     100     231       0       0       0             111        01010000D    113
     100       0       0       2       0                               0D    114
     120     233       0       0       0                        01010000D    115
     120       0     -25       1       0                               0D    116
     508     234       0       0       0                        00010000D    117
     508       0       0       1       1                               0D    118
     510     235       0       0       0                        00010000D    119
     510       0     -25       1       1                               0D    120
     116     236       0       0       0                        00010000D    121
     116       0       0       1       0                               0D    122
     123     237       0       0       0                        00010200D    123
     123       0       0       1       0                               0D    124
     123     238       0       0       0                        00010200D    125
     123       0       0       1       0                               0D    126
     190     239       0       0       0                        00010000D    127
     190       0     -25       1       1                               0D    128
     508     240       0       0       0                        00010000D    129
     508       0       0       1       1                               0D    130
     510     241       0       0       0                        00010000D    131
     510       0     -25       1       1                               0D    132
     110     242       0       0       0                        01010000D    133
     110       0       0       1       0                               0D    134
     124     243       0       0       0                        00000000D    135
     124       0       0       4       0                               0D    136
     100     247       0       0       0             135        01010000D    137
     100       0       0       2       0                               0D    138
     120     249       0       0       0                        01010000D    139
     120       0     -25       1       0                               0D    140
     508     250       0       0       0                        00010000D    141
     508       0       0       1       1                               0D    142
     510     251       0       0       0                        00010000D    143
     510       0     -25       1       1                               0D    144
     116     252       0       0       0                        00010000D    145
     116       0       0       1       0                               0D    146
     123     253       0       0       0                        00010200D    147
     123       0       0       1       0                               0D    148
     123     254       0       0       0                        00010200D    149
     123       0       0       1       0                               0D    150
     190     255       0       0       0                        00010000D    151
     190       0     -25       1       1                               0D    152
     508     256       0       0       0                        00010000D    153
     508       0       0       1       1                               0D    154
     508     257       0       0       0                        00010000D    155
     508       0       0       1       1                               0D    156
     510     258       0       0       0                        00010000D    157
     510       0     -25       1       1                               0D    158
     110     259       0       0       0                        01010000D    159
     110       0       0       1       0                               0D    160
     110     260       0       0       0                        01010000D    161
     110       0       0       1       0                               0D    162
     120     261       0       0       0                        01010000D    163
     120       0     -25       1       0                               0D    164
     508     262       0       0       0                        00010000D    165
     508       0       0       1       1                               0D    166
     508     263       0       0       0                        00010000D    167
     508       0       0       1       1                               0D    168
     510     264       0       0       0                        00010000D    169
     510       0     -25       1       1                               0D    170
     116     265       0       0       0                        00010000D    171
     116       0       0       1       0                               0D    172
     123     266       0       0       0                        00010200D    173
     123       0       0       1       0                               0D    174
     123     267       0       0       0                        00010200D    175
     123       0       0       1       0                               0D    176
     190     268       0       0       0                        00010000D    177
     190       0     -25       1       1                               0D    178
     508     269       0       0       0                        00010000D    179
     508       0       0       1       1                               0D    180
     510     270       0       0       0                        00010000D    181
     510       0     -25       1       1                               0D    182
     110     271       0       0       0                        01010000D    183
     110       0       0       1       0                               0D    184
     110     272       0       0       0                        01010000D    185
     110       0       0       2       0                               0D    186
     120     274       0       0       0                        01010000D    187
     120       0     -25       1       0                               0D    188
     508     275       0       0       0                        00010000D    189
     508       0       0       1       1                               0D    190
     510     276       0       0       0                        00010000D    191
     510       0     -25       1       1                               0D    192
     514     277       0       0       0                        00010000D    193
     514       0       0       1       1                               0D    194
     186     278       0       0       0                        00000000D    195
     186       0       0       1       0                               0D    196
124,1.,0.,0.,0.,0.,1.,0.,0.,0.,0.,1.,0.;                               1P      1
110,-53.024540784,0.,0.,39.661575116,0.,0.;                            3P      2
110,25.542314217,0.,0.,25.542314217,2.3,0.;                            5P      3
110,25.542314217,2.3,0.,-12.457685783,2.3,0.;                          7P      4
110,-12.457685783,2.3,0.,-12.457685783,3.9,0.;                         9P      5
110,-14.257685783,0.,0.,25.542314217,0.,0.;                           11P      6
110,-14.257685783,3.9,0.,-14.257685783,0.,0.;                         13P      7
100,0.,-13.357685783,3.,-12.457685783,3.9,-14.257685783,3.9;          15P      8
402,1,7,1,3,5,7,9,11,13,15;                                           17P      9
124,1.,0.,0.,0.,0.,0.,1.,0.,0.,-1.,0.,0.;                             19P     10
100,0.,23.762820109,0.,24.616705798,0.261059054,24.616705798,         21P     11
0.261059054;                                                          21P     12
402,1,1,19,21;                                                        23P     13
314,89.8039215686275,91.7647058823529,92.9411764705882,;              25P     14
502,12,-12.457685783,0.,-2.3,-14.257685783,0.,3.9,25.542314217,       27P     15
0.,-2.3,-14.257685783,0.,-3.9,25.542314217,0.,2.3,23.762820109,       27P     16
-2.119605482,0.892901226,-12.457685783,0.,-3.9,23.762820109,          27P     17
-2.119605482,-0.892901226,-12.457685783,0.,3.9,23.762820109,          27P     18
2.119605482,0.892901226,-12.457685783,0.,2.3,23.762820109,            27P     19
2.119605482,-0.892901226;                                             27P     20
124,6.12323399573677E-017,0.,-1.,-12.4576857829607,0.,1.,0.,0.,       29P     21
1.,0.,6.12323399573677E-017,12.4576857829607;                         29P     22
100,0.,-12.457685783,0.,-8.557685783,0.,-16.357685783,0.;             31P     23
124,6.12323399573677E-017,0.,-1.,-14.2576857829607,0.,1.,0.,0.,       33P     24
1.,0.,6.12323399573677E-017,14.2576857829607;                         33P     25
100,0.,-14.257685783,0.,-10.357685783,0.,-18.157685783,0.;            35P     26
124,-6.12323399573677E-017,-7.49879891330929E-033,-1.,                37P     27
-14.2576857829607,1.22464679914735E-016,-1.,0.,                       37P     28
1.74606292573515E-015,-1.,-1.22464679914735E-016,                     37P     29
6.12323399573677E-017,-14.2576857829607;                              37P     30
100,0.,-14.257685783,0.,-10.357685783,0.,-18.157685783,0.;            39P     31
124,6.12323399573677E-017,0.,-1.,25.5423142170393,0.,1.,0.,0.,        41P     32
1.,0.,6.12323399573677E-017,-25.5423142170393;                        41P     33
100,0.,25.542314217,0.,27.842314217,0.,23.242314217,0.;               43P     34
124,-6.12323399573677E-017,-7.49879891330929E-033,-1.,                45P     35
25.5423142170393,1.22464679914735E-016,-1.,0.,                        45P     36
-3.12803133487132E-015,-1.,-1.22464679914735E-016,                    45P     37
6.12323399573677E-017,25.5423142170393;                               45P     38
100,0.,25.542314217,0.,27.842314217,0.,23.242314217,0.;               47P     39
124,6.12323399573677E-017,0.,-1.,-12.4576857829607,0.,1.,0.,0.,       49P     40
1.,0.,6.12323399573677E-017,12.4576857829607;                         49P     41
100,0.,-12.457685783,0.,-10.157685783,0.,-14.757685783,0.;            51P     42
126,30,3,1,0,1,0,0.,0.,0.,0.,0.000286972319736655,                    53P     43
0.000286972319736655,0.000286972319736655,0.000572986509176588,       53P     44
0.000572986509176588,0.000572986509176588,0.00087312898875608,        53P     45
0.00087312898875608,0.00087312898875608,0.00118474766727965,          53P     46
0.00118474766727965,0.00118474766727965,0.00148183641148094,          53P     47
0.00148183641148094,0.00148183641148094,0.00176273528207107,          53P     48
0.00176273528207107,0.00176273528207107,0.00204774927948563,          53P     49
0.00204774927948563,0.00204774927948563,0.00235088355636581,          53P     50
0.00235088355636581,0.00235088355636581,0.00266205298029327,          53P     51
0.00266205298029327,0.00266205298029327,0.00281948373263303,          53P     52
0.00281948373263303,0.00281948373263303,0.00281948373263303,1.,       53P     53
1.,1.,1.,1.,1.,1.,1.,1.,1.,1.,1.,1.,1.,1.,1.,1.,1.,1.,1.,1.,1.,       53P     54
1.,1.,1.,1.,1.,1.,1.,1.,1.,23.762820109,2.119605482,                  53P     55
0.892901226,23.667162669,2.119605482,0.892901226,23.570200585,        53P     56
2.126467806,0.877028527,23.480167376,2.13836853,0.846982899,          53P     57
23.390306581,2.150246463,0.81699481,23.304881914,2.167284286,         53P     58
0.772233395,23.229717171,2.185618023,0.71629174,23.150889701,         53P     59
2.20484515,0.657624086,23.081176526,2.225895928,0.585087171,          53P     60
23.02562774,2.244143487,0.503805529,22.968072438,2.263050179,         53P     61
0.419587855,22.924155033,2.279367025,0.323389781,22.898315016,        53P     62
2.289125697,0.22339101,22.873671295,2.298432579,0.128021808,          53P     63
22.864847053,2.301961922,0.026393741,22.872840666,2.298867289,        53P     64
-0.072174718,22.88041392,2.295935392,-0.165559786,22.903193392,       53P     65
2.287044335,-0.258714107,22.938997626,2.274073632,-0.344367705,       53P     66
22.975352514,2.260903445,-0.43133862,23.02596726,2.243279001,         53P     67
-0.512870386,23.086978441,2.224744785,-0.583532895,                   53P     68
23.151792704,2.205055255,-0.658600093,23.230103653,2.183895545,       53P     69
-0.723459537,23.316302244,2.166126867,-0.773236313,                   53P     70
23.404607128,2.147924005,-0.824229403,23.503966623,2.132943237,       53P     71
-0.860778903,23.605663327,2.125423641,-0.878962084,                   53P     72
23.657332069,2.121603182,-0.888200359,23.710193115,2.119605482,       53P     73
-0.892901226,23.762820109,2.119605482,-0.892901226,0.,                53P     74
0.00281948373263303,0.,0.930032071,0.367478363;                       53P     75
110,23.762820109,-2.119605482,-0.892901226,23.762820109,              55P     76
2.119605482,-0.892901226;                                             55P     77
126,30,3,1,0,1,0,0.,0.,0.,0.,0.000286972319736655,                    57P     78
0.000286972319736655,0.000286972319736655,0.000572986509176588,       57P     79
0.000572986509176588,0.000572986509176588,0.00087312898875608,        57P     80
0.00087312898875608,0.00087312898875608,0.00118474766727965,          57P     81
0.00118474766727965,0.00118474766727965,0.00148183641148094,          57P     82
0.00148183641148094,0.00148183641148094,0.00176273528207107,          57P     83
0.00176273528207107,0.00176273528207107,0.00204774927948563,          57P     84
0.00204774927948563,0.00204774927948563,0.00235088355636581,          57P     85
0.00235088355636581,0.00235088355636581,0.00266205298029327,          57P     86
0.00266205298029327,0.00266205298029327,0.00281948373263303,          57P     87
0.00281948373263303,0.00281948373263303,0.00281948373263303,1.,       57P     88
1.,1.,1.,1.,1.,1.,1.,1.,1.,1.,1.,1.,1.,1.,1.,1.,1.,1.,1.,1.,1.,       57P     89
1.,1.,1.,1.,1.,1.,1.,1.,1.,23.762820109,-2.119605482,                 57P     90
0.892901226,23.858477549,-2.119605482,0.892901226,23.955439633,       57P     91
-2.126467806,0.877028527,24.045472842,-2.13836853,0.846982899,        57P     92
24.135333637,-2.150246463,0.81699481,24.220758304,-2.167284286,       57P     93
0.772233395,24.295923047,-2.185618023,0.71629174,24.374750517,        57P     94
-2.20484515,0.657624086,24.444463693,-2.225895928,0.585087171,        57P     95
24.500012478,-2.244143487,0.503805529,24.55756778,-2.263050179,       57P     96
0.419587855,24.601485185,-2.279367025,0.323389781,24.627325202,       57P     97
-2.289125697,0.22339101,24.651968923,-2.298432579,0.128021808,        57P     98
24.660793165,-2.301961922,0.026393741,24.652799552,                   57P     99
-2.298867289,-0.072174718,24.645226298,-2.295935392,                  57P    100
-0.165559786,24.622446826,-2.287044335,-0.258714107,                  57P    101
24.586642592,-2.274073632,-0.344367705,24.550287704,                  57P    102
-2.260903445,-0.43133862,24.499672958,-2.243279001,                   57P    103
-0.512870386,24.438661777,-2.224744785,-0.583532895,                  57P    104
24.373847514,-2.205055255,-0.658600093,24.295536565,                  57P    105
-2.183895545,-0.723459537,24.209337974,-2.166126867,                  57P    106
-0.773236313,24.12103309,-2.147924005,-0.824229403,                   57P    107
24.021673595,-2.132943237,-0.860778903,23.919976891,                  57P    108
-2.125423641,-0.878962084,23.868308149,-2.121603182,                  57P    109
-0.888200359,23.815447103,-2.119605482,-0.892901226,                  57P    110
23.762820109,-2.119605482,-0.892901226,0.,0.00281948373263303,        57P    111
0.,-0.930032071,0.367478363;                                          57P    112
124,0.707106781186544,-0.707106781186551,0.,-3.91237558487009,        59P    113
4.32978028117749E-017,4.32978028117744E-017,-1.,3.,                   59P    114
0.707106781186551,0.707106781186544,6.12323399573677E-017,            59P    115
12.4453101980907;                                                     59P    116
100,3.,-13.357685783,0.,-12.084893577,0.,-13.357685783,               61P    117
1.272792206;                                                          61P    118
110,23.762820109,-2.119605482,0.892901226,23.762820109,               63P    119
2.119605482,0.892901226;                                              63P    120
110,25.542314217,0.,2.3,-12.457685783,0.,2.3;                         65P    121
110,25.542314217,0.,-2.3,-12.457685783,0.,-2.3;                       67P    122
126,30,3,1,0,1,0,0.00281948373263303,0.00281948373263303,             69P    123
0.00281948373263303,0.00281948373263303,0.0029547248076407,           69P    124
0.0029547248076407,0.0029547248076407,0.00323159089106526,            69P    125
0.00323159089106526,0.00323159089106526,0.00351938469445979,          69P    126
0.00351938469445979,0.00351938469445979,0.00382747089973883,          69P    127
0.00382747089973883,0.00382747089973883,0.00413515457346893,          69P    128
0.00413515457346893,0.00413515457346893,0.00442333841295538,          69P    129
0.00442333841295538,0.00442333841295538,0.00470324602971523,          69P    130
0.00470324602971523,0.00470324602971523,0.00499540821835076,          69P    131
0.00499540821835076,0.00499540821835076,0.00530486904203042,          69P    132
0.00530486904203042,0.00530486904203042,0.0056384156570187,           69P    133
0.0056384156570187,0.0056384156570187,0.0056384156570187,1.,1.,       69P    134
1.,1.,1.,1.,1.,1.,1.,1.,1.,1.,1.,1.,1.,1.,1.,1.,1.,1.,1.,1.,1.,       69P    135
1.,1.,1.,1.,1.,1.,1.,1.,23.762820109,-2.119605482,-0.892901226,       69P    136
23.71755648,-2.119605482,-0.892901226,23.672142626,-2.12107616,       69P    137
-0.889432906,23.627490363,-2.123921265,-0.882586233,                  69P    138
23.536275464,-2.129733199,-0.868599964,23.446583118,                  69P    139
-2.141562637,-0.839993612,23.364914556,-2.156630759,                  69P    140
-0.799339584,23.280007458,-2.172296401,-0.757073435,                  69P    141
23.201520363,-2.191726172,-0.700781125,23.134563232,                  69P    142
-2.210754193,-0.634480808,23.063018871,-2.231085824,                  69P    143
-0.563638261,23.0026682,-2.251412508,-0.479319888,22.958568302,       69P    144
-2.267057205,-0.387880948,22.91458411,-2.282660854,-0.29668192,       69P    145
22.885611065,-2.29393216,-0.195588797,22.87485865,-2.298086803,       69P    146
-0.093792578,22.864772591,-2.301983971,0.001695065,                   69P    147
22.870436701,-2.299718529,0.100482129,22.891241366,                   69P    148
-2.291806472,0.193966735,22.911482288,-2.284108808,0.284918193,       69P    149
22.946464832,-2.2709549,0.373260874,22.993168982,-2.255014469,        69P    150
0.452669573,23.041912268,-2.238378069,0.53554531,23.104620884,        69P    151
-2.218358456,0.610898946,23.176796393,-2.199125098,0.673683015,       69P    152
23.253105972,-2.178790091,0.740063229,23.342246267,                   69P    153
-2.158881613,0.79424482,23.437369062,-2.144445333,0.831477129,        69P    154
23.539447852,-2.128953378,0.871432105,23.65211112,-2.119605482,       69P    155
0.892901226,23.762820109,-2.119605482,0.892901226,                    69P    156
0.00281948373263303,0.0056384156570187,0.,-0.94305731,                69P    157
-0.33263029;                                                          69P    158
124,-6.12323399573677E-017,-7.49879891330929E-033,-1.,                71P    159
-12.4576857829607,1.22464679914735E-016,-1.,0.,                       71P    160
1.52562650188863E-015,-1.,-1.22464679914735E-016,                     71P    161
6.12323399573677E-017,-12.4576857829607;                              71P    162
100,0.,-12.457685783,0.,-10.157685783,0.,-14.757685783,0.;            73P    163
124,-6.12323399573677E-017,-7.49879891330929E-033,-1.,                75P    164
-12.4576857829607,1.22464679914735E-016,-1.,0.,                       75P    165
1.52562650188863E-015,-1.,-1.22464679914735E-016,                     75P    166
6.12323399573677E-017,-12.4576857829607;                              75P    167
100,0.,-12.457685783,0.,-8.557685783,0.,-16.357685783,0.;             77P    168
124,0.707106781186544,-0.707106781186551,0.,-3.91237558487009,        79P    169
4.32978028117749E-017,4.32978028117744E-017,1.,3.,                    79P    170
-0.707106781186551,-0.707106781186544,6.12323399573677E-017,          79P    171
-12.4453101980907;                                                    79P    172
100,-3.,-13.357685783,0.,-12.084893577,0.,-13.357685783,              81P    173
1.272792206;                                                          81P    174
126,30,3,1,0,1,0,0.00281948373263303,0.00281948373263303,             83P    175
0.00281948373263303,0.00281948373263303,0.0029547248076407,           83P    176
0.0029547248076407,0.0029547248076407,0.00323159089106526,            83P    177
0.00323159089106526,0.00323159089106526,0.00351938469445979,          83P    178
0.00351938469445979,0.00351938469445979,0.00382747089973883,          83P    179
0.00382747089973883,0.00382747089973883,0.00413515457346893,          83P    180
0.00413515457346893,0.00413515457346893,0.00442333841295538,          83P    181
0.00442333841295538,0.00442333841295538,0.00470324602971523,          83P    182
0.00470324602971523,0.00470324602971523,0.00499540821835076,          83P    183
0.00499540821835076,0.00499540821835076,0.00530486904203042,          83P    184
0.00530486904203042,0.00530486904203042,0.0056384156570187,           83P    185
0.0056384156570187,0.0056384156570187,0.0056384156570187,1.,1.,       83P    186
1.,1.,1.,1.,1.,1.,1.,1.,1.,1.,1.,1.,1.,1.,1.,1.,1.,1.,1.,1.,1.,       83P    187
1.,1.,1.,1.,1.,1.,1.,1.,23.762820109,2.119605482,-0.892901226,        83P    188
23.808083738,2.119605482,-0.892901226,23.853497592,2.12107616,        83P    189
-0.889432906,23.898149855,2.123921265,-0.882586233,                   83P    190
23.989364755,2.129733199,-0.868599964,24.0790571,2.141562637,         83P    191
-0.839993612,24.160725662,2.156630759,-0.799339584,24.24563276,       83P    192
2.172296401,-0.757073435,24.324119855,2.191726172,-0.700781125,       83P    193
24.391076986,2.210754193,-0.634480808,24.462621347,2.231085824,       83P    194
-0.563638261,24.522972018,2.251412508,-0.479319888,                   83P    195
24.567071916,2.267057205,-0.387880948,24.611056108,2.282660854,       83P    196
-0.29668192,24.640029153,2.29393216,-0.195588797,24.650781568,        83P    197
2.298086803,-0.093792578,24.660867627,2.301983971,0.001695065,        83P    198
24.655203517,2.299718529,0.100482129,24.634398852,2.291806472,        83P    199
0.193966735,24.61415793,2.284108808,0.284918193,24.579175386,         83P    200
2.2709549,0.373260874,24.532471236,2.255014469,0.452669573,           83P    201
24.483727951,2.238378069,0.53554531,24.421019334,2.218358456,         83P    202
0.610898946,24.348843825,2.199125098,0.673683015,24.272534246,        83P    203
2.178790091,0.740063229,24.183393951,2.158881613,0.79424482,          83P    204
24.088271156,2.144445333,0.831477129,23.986192366,2.128953378,        83P    205
0.871432105,23.873529098,2.119605482,0.892901226,23.762820109,        83P    206
2.119605482,0.892901226,0.00281948373263303,0.0056384156570187,       83P    207
0.,0.94305731,-0.33263029;                                            83P    208
504,18,31,27,9,27,7,35,27,2,27,4,39,27,4,27,2,43,27,5,27,3,47,        85P    209
27,3,27,5,51,27,11,27,1,53,27,10,27,12,55,27,8,27,12,57,27,6,         85P    210
27,8,61,27,9,27,2,63,27,6,27,10,65,27,5,27,11,67,27,3,27,1,69,        85P    211
27,8,27,6,73,27,1,27,11,77,27,7,27,9,81,27,7,27,4,83,27,12,27,        85P    212
10;                                                                   85P    213
110,23.762820109,-5.,0.,23.762820109,995.,0.;                         87P    214
110,23.762820109,-2.329607647,0.892901226,23.762820109,               89P    215
2.329585597,0.892901226;                                              89P    216
120,87,89,0.,6.28318530717959;                                        91P    217
508,4,0,85,14,0,0,0,85,8,1,0,0,85,7,0,0,0,85,11,0,0;                  93P    218
510,91,1,1,93;                                                        95P    219
110,-53.024540784,0.,0.,-1053.024540784,0.,0.;                        97P    220
110,-12.457685783,0.,2.3,25.542314217,0.,2.3;                         99P    221
120,97,99,0.,6.28318530717959;                                       101P    222
508,4,0,85,4,1,0,0,85,13,1,0,0,85,6,0,0,0,85,12,0,0;                 103P    223
508,2,0,85,7,1,0,0,85,18,1,0;                                        105P    224
510,101,2,1,103,105;                                                 107P    225
110,-13.357685783,0.,0.,-1013.357685783,0.,0.;                       109P    226
124,-0.70710678118654,0.707106781186555,0.,-22.8029959810512,        111P    227
-4.32978028117751E-017,-4.32978028117742E-017,1.,-3.,                111P    228
0.707106781186555,0.70710678118654,6.12323399573677E-017,            111P    229
12.4453101980907;                                                    111P    230
100,3.,-13.357685783,0.,-12.084893577,0.,-13.357685783,              113P    231
1.272792206;                                                         113P    232
120,109,113,0.,6.28318530717959;                                     115P    233
508,4,0,85,1,1,0,0,85,17,1,0,0,85,2,0,0,0,85,10,0,0;                 117P    234
510,115,1,1,117;                                                     119P    235
116,-14.257685783,3.9,0.,;                                           121P    236
123,1.,0.,0.;                                                        123P    237
123,0.,0.707106781,-0.707106781;                                     125P    238
190,121,123,125;                                                     127P    239
508,2,0,85,2,1,0,0,85,3,1,0;                                         129P    240
510,127,1,1,129;                                                     131P    241
110,-13.357685783,0.,0.,-1013.357685783,0.,0.;                       133P    242
124,-0.70710678118654,0.707106781186555,0.,-22.8029959810512,        135P    243
-4.32978028117751E-017,-4.32978028117742E-017,1.,-3.,                135P    244
0.707106781186555,0.70710678118654,6.12323399573677E-017,            135P    245
12.4453101980907;                                                    135P    246
100,3.,-13.357685783,0.,-12.084893577,0.,-13.357685783,              137P    247
1.272792206;                                                         137P    248
120,133,137,0.,6.28318530717959;                                     139P    249
508,4,0,85,17,0,0,0,85,16,1,0,0,85,10,1,0,0,85,3,0,0;                141P    250
510,139,1,1,141;                                                     143P    251
116,-12.457685783,2.3,0.,;                                           145P    252
123,-1.,0.,0.;                                                       147P    253
123,0.,-0.707106781,0.707106781;                                     149P    254
190,145,147,149;                                                     151P    255
508,2,0,85,1,0,0,0,85,16,0,0;                                        153P    256
508,2,0,85,6,1,0,0,85,15,1,0;                                        155P    257
510,151,2,1,153,155;                                                 157P    258
110,-53.024540784,0.,0.,-1053.024540784,0.,0.;                       159P    259
110,-12.457685783,0.,2.3,25.542314217,0.,2.3;                        161P    260
120,159,161,0.,6.28318530717959;                                     163P    261
508,4,0,85,13,0,0,0,85,5,1,0,0,85,12,1,0,0,85,15,0,0;                165P    262
508,2,0,85,9,1,0,0,85,14,1,0;                                        167P    263
510,163,2,1,165,167;                                                 169P    264
116,25.542314217,0.,0.,;                                             171P    265
123,-1.,0.,0.;                                                       173P    266
123,0.,-0.707106781,0.707106781;                                     175P    267
190,171,173,175;                                                     177P    268
508,2,0,85,4,0,0,0,85,5,0,0;                                         179P    269
510,177,1,1,179;                                                     181P    270
110,23.762820109,-5.,0.,23.762820109,995.,0.;                        183P    271
110,23.762820109,-2.329585597,0.892901226,23.762820109,              185P    272
2.329607647,0.892901226;                                             185P    273
120,183,185,0.,6.28318530717959;                                     187P    274
508,4,0,85,8,0,0,0,85,9,0,0,0,85,11,1,0,0,85,18,0,0;                 189P    275
510,187,1,1,189;                                                     191P    276
514,9,95,1,107,1,119,1,131,1,143,1,157,1,169,1,181,1,191,1;          193P    277
186,193,1,0;                                                         195P    278
S      1G      4D    196P    278                                        T      1
